<?xml version="1.0" standalone="no"?>
<!DOCTYPE svg PUBLIC "-//W3C//DTD SVG 20010904//EN"
 "http://www.w3.org/TR/2001/REC-SVG-20010904/DTD/svg10.dtd">
<svg version="1.0" xmlns="http://www.w3.org/2000/svg"
 width="364.000000pt" height="364.000000pt" viewBox="0 0 364.000000 364.000000"
 preserveAspectRatio="xMidYMid meet">
<metadata>
Created by potrace 1.11, written by Peter Selinger 2001-2013
</metadata>
<g transform="translate(0.000000,364.000000) scale(0.100000,-0.100000)"
fill="#000000" stroke="none">
<path d="M1757 3454 c-1 -1 -36 -5 -77 -7 -329 -24 -646 -147 -893 -344 -273
-218 -432 -466 -517 -806 -31 -127 -36 -153 -49 -301 -45 -483 126 -984 440
-1288 262 -253 648 -447 964 -484 33 -3 69 -8 80 -11 31 -6 234 -5 290 2 117
14 151 21 245 47 559 154 1010 667 1126 1278 9 52 20 97 24 100 12 9 18 47 9
61 -11 18 -16 11 -23 -36 -4 -22 -21 -69 -38 -105 l-32 -65 -4 38 c-2 20 -7
37 -13 37 -12 0 -12 -36 1 -60 8 -15 4 -29 -20 -66 -16 -27 -30 -52 -30 -57 0
-20 -53 -121 -130 -247 -59 -96 -81 -125 -76 -102 7 38 31 94 56 132 70 103
109 214 126 355 3 33 8 69 10 79 12 67 15 186 5 186 -6 0 -11 -18 -11 -42 0
-41 -19 -121 -54 -235 -48 -152 -222 -518 -271 -567 -35 -35 -188 -152 -281
-214 -143 -96 -318 -175 -463 -208 -105 -25 -148 -29 -291 -28 -652 3 -1229
500 -1298 1119 -8 77 -8 252 0 330 32 295 162 590 340 775 224 235 608 408
913 413 461 8 942 -281 1141 -685 48 -95 67 -152 108 -312 20 -76 46 -162 59
-190 40 -87 105 -134 189 -135 34 -1 38 2 62 52 32 64 36 84 37 162 1 134 -25
254 -97 438 -122 316 -312 553 -587 732 -185 120 -381 192 -652 240 -55 10
-312 25 -318 19z m1156 -2603 c-22 -35 -143 -136 -143 -120 0 15 154 167 158
156 2 -4 -5 -20 -15 -36z"/>
<path d="M1870 2203 c-48 -8 -185 -46 -196 -54 -14 -11 -58 -149 -80 -249 -17
-77 -28 -293 -17 -342 4 -19 12 -28 25 -28 11 0 39 -14 63 -31 34 -25 51 -30
86 -28 60 3 116 26 166 66 43 34 89 91 81 99 -3 2 -31 -5 -64 -17 -82 -29
-145 -32 -183 -8 -17 10 -31 23 -31 28 0 16 52 46 140 81 106 42 153 65 175
86 15 15 15 18 -6 40 -31 33 -62 41 -164 43 -49 1 -91 3 -92 4 -1 2 7 21 17
44 23 52 75 83 190 113 47 12 88 25 93 29 15 14 20 108 7 116 -14 9 -169 14
-210 8z"/>
<path d="M2285 2186 c-80 -35 -107 -122 -120 -391 -6 -122 -14 -206 -22 -218
-8 -13 77 -88 95 -85 11 2 24 30 40 88 49 181 73 251 84 248 7 -3 30 -49 53
-104 23 -55 51 -117 63 -137 27 -43 87 -97 108 -97 8 0 27 20 43 45 72 114
127 390 122 615 -1 41 -2 43 -15 25 -12 -18 -37 -83 -42 -110 -25 -138 -51
-240 -70 -281 -23 -49 -50 -82 -59 -73 -12 13 -55 209 -55 255 0 48 -4 57 -40
95 -30 31 -40 51 -40 74 0 26 -5 35 -27 44 -47 18 -87 21 -118 7z"/>
<path d="M1190 2184 c-8 -1 -60 -10 -115 -19 -184 -29 -175 -26 -168 -58 14
-55 38 -65 189 -81 29 -3 61 -9 73 -14 20 -7 18 -11 -31 -52 -167 -141 -258
-244 -258 -294 0 -38 46 -115 86 -143 124 -87 376 -66 522 44 35 26 42 44 15
39 -79 -14 -258 -28 -296 -22 -44 7 -107 50 -107 73 0 7 156 167 203 208 71
61 132 109 179 139 62 39 78 69 62 113 -7 20 -56 48 -91 53 -2 0 -4 0 -5 1
-35 10 -222 20 -258 13z"/>
<path d="M3311 1702 c-14 -26 -17 -74 -6 -91 6 -10 12 2 22 39 14 56 4 90 -16
52z"/>
</g>
</svg>
